<svg width="35" height="35" viewBox="0 0 35 35" fill="none" xmlns="http://www.w3.org/2000/svg">
<path fill-rule="evenodd" clip-rule="evenodd" d="M17.5 0C27.1585 0 35 7.84146 35 17.5C35 27.1585 27.1585 35 17.5 35C7.84146 35 0 27.1585 0 17.5C0 7.84146 7.84146 0 17.5 0ZM24.306 27.7083C24.7756 27.7083 25.1562 27.3277 25.1562 26.8581V26.0065C25.6069 26.0065 26.04 25.8271 26.3594 25.5092C26.6788 25.1898 26.8581 24.7567 26.8581 24.306V17.5C27.3277 17.5 27.7083 17.1194 27.7083 16.6498V14.0977C27.7083 13.6281 27.3277 13.246 26.8581 13.246V9.84375C26.8581 8.435 25.7148 7.29167 24.306 7.29167H10.694C9.28521 7.29167 8.14188 8.435 8.14188 9.84375V13.246C7.67229 13.246 7.29167 13.6281 7.29167 14.0977V16.6498C7.29167 17.1194 7.67229 17.5 8.14188 17.5V24.306C8.14188 24.7567 8.32125 25.1898 8.64063 25.5092C8.96 25.8271 9.39313 26.0065 9.84375 26.0065V26.8581C9.84375 27.3277 10.2244 27.7083 10.694 27.7083H12.3958C12.8654 27.7083 13.246 27.3277 13.246 26.8581V26.0065H21.754V26.8581C21.754 27.3277 22.1346 27.7083 22.6042 27.7083H24.306ZM11.1198 21.754C11.8242 21.754 12.3958 22.3256 12.3958 23.03C12.3958 23.7344 11.8242 24.306 11.1198 24.306C10.4154 24.306 9.84375 23.7344 9.84375 23.03C9.84375 22.3256 10.4154 21.754 11.1198 21.754ZM23.8802 21.754C24.5846 21.754 25.1562 22.3256 25.1562 23.03C25.1562 23.7344 24.5846 24.306 23.8802 24.306C23.1758 24.306 22.6042 23.7344 22.6042 23.03C22.6042 22.3256 23.1758 21.754 23.8802 21.754ZM19.6263 22.6042C19.861 22.6042 20.0521 22.7952 20.0521 23.03C20.0521 23.2648 19.861 23.4544 19.6263 23.4544H15.3737C15.139 23.4544 14.9479 23.2648 14.9479 23.03C14.9479 22.7952 15.139 22.6042 15.3737 22.6042H19.6263ZM25.1562 11.97C25.1562 11.7352 24.9652 11.5456 24.7304 11.5456H10.2696C10.0348 11.5456 9.84375 11.7352 9.84375 11.97V19.2019C9.84375 19.2019 12.479 20.0521 17.5 20.0521C22.521 20.0521 25.1562 19.2019 25.1562 19.2019V11.97ZM20.9023 8.99354V9.84375H14.0977V8.99354H20.9023Z" fill="#F2F2F2"/>
</svg>
