<svg width="155" height="218" viewBox="0 0 155 218" fill="none" xmlns="http://www.w3.org/2000/svg">
<path d="M84.8917 5.9383C81.1315 5.2707 77.2581 5.8113 73.824 7.48286C69.3928 4.72152 63.6591 5.27413 59.8371 8.83178L47.551 20.3353V19.3331C47.551 8.98109 39.1589 0.588959 28.8051 0.588959C22.5943 0.588959 17.559 5.62424 17.559 11.8351V48.5545L8.38085 58.5084C5.77397 61.3229 4.35469 65.035 4.41476 68.8707C4.34096 81.9394 5.30545 94.9961 7.30137 107.912C7.38203 108.207 7.50045 108.49 7.65319 108.756L1.535 125.968C-0.792141 132.375 1.55045 139.543 7.21042 143.341L9.35221 144.796C7.16579 151.168 9.48951 158.217 15.0345 162.042L75.7358 203.656C76.7587 204.356 77.3679 205.515 77.3679 206.752C77.3679 212.965 82.4032 218 88.6141 218H143.099C146.52 218.009 149.756 216.449 151.879 213.768C154.045 211.043 154.831 207.47 154.009 204.087L148.536 183.843C146.611 174.996 146.044 165.907 146.856 156.89C149.945 117.71 123.679 89.4065 117.017 84.4879C104.762 75.454 95.6212 66.0355 91.9314 58.6457C86.4019 47.5574 90.1295 39.9719 93.7317 32.6387C96.7539 26.4861 99.8808 20.1277 95.4445 13.4586C93.1002 9.61779 89.2885 6.90108 84.8917 5.9383V5.9383ZM28.8051 8.08696C35.0177 8.08696 40.053 13.1222 40.053 19.3331V27.3562L25.057 41.3929V11.8351C25.057 10.8414 25.4517 9.88723 26.1553 9.18531C26.8573 8.48168 27.8115 8.08696 28.8051 8.08696ZM11.9128 68.7694C11.8819 66.8525 12.5924 64.9973 13.8949 63.5917L23.7887 52.8433C23.8797 52.766 23.9638 52.6854 24.0444 52.5996L46.0596 31.9985C46.2724 31.8372 46.4664 31.6536 46.6397 31.4511L65.056 14.2051C66.5234 12.7773 68.8625 12.7773 70.3299 14.2051L70.5856 13.9494C70.6765 14.0558 70.7744 14.1537 70.8773 14.2463L70.6405 14.5501C74.713 18.9624 74.5997 25.7945 70.3865 30.0712L55.6411 44.228L34.8787 62.9275C33.5298 64.364 32.821 66.2844 32.9102 68.2511C25.934 69.159 20.0526 73.8974 17.6826 80.5218L12.9768 93.757C12.2234 84.5411 11.9831 74.1068 11.9128 68.7694ZM40.3756 68.0709L51.2099 58.323C51.0674 61.5769 51.1859 64.8377 51.5669 68.0709H40.3756ZM8.58679 128.525L24.7532 83.0343C26.3716 78.5379 30.6466 75.5466 35.4262 75.5689H67.5977C68.3751 75.5741 69.1337 75.8178 69.767 76.2674L89.1735 90.0192C89.9321 90.5443 90.392 91.4041 90.4058 92.3275C90.4126 92.8543 90.2753 93.3726 90.0093 93.8274C89.8772 94.0454 89.7056 94.2616 89.5477 94.4761L83.4587 90.1204C80.2906 87.8448 76.4875 86.6229 72.5866 86.6263H43.082C35.1447 86.6383 28.0758 91.6496 25.4346 99.1355L11.9385 137.489L11.4511 137.159C8.61597 135.289 7.4318 131.719 8.58679 128.525V128.525ZM87.018 29.3813C83.2304 37.0818 78.0493 47.6312 85.2401 62.0437C90.9875 73.5644 104.837 84.8638 112.582 90.5649C117.561 94.229 142.229 120.397 139.396 156.346C138.521 166.17 139.152 176.07 141.27 185.701L146.743 205.947C146.999 207.058 146.734 208.225 146.025 209.119C145.317 210.011 144.239 210.533 143.099 210.536H88.5952C86.5255 210.536 84.847 208.856 84.847 206.786C84.8522 203.078 83.0279 199.606 79.9731 197.504L19.2752 155.89C16.4778 153.964 15.3177 150.403 16.4452 147.199L32.5018 101.61C34.0875 97.1276 38.3196 94.126 43.0752 94.1123H72.5798C74.9189 94.1106 77.1997 94.8434 79.0996 96.2077L96.409 108.599C97.6257 109.484 97.9655 111.149 97.1967 112.441C95.6247 115.077 93.0401 116.95 90.0488 117.626C87.0558 118.3 83.9169 117.717 81.3666 116.011L73.8686 111.006C72.0255 109.766 69.8528 109.105 67.6303 109.108H56.0838C51.203 109.079 46.8697 112.228 45.392 116.881C45.1706 117.581 44.8549 118.451 44.4996 119.429C41.8001 126.89 35.5017 144.347 49.7923 150.079C51.0468 150.636 52.5056 150.463 53.5954 149.629C54.6852 148.795 55.2309 147.432 55.0198 146.077C54.8087 144.719 53.8734 143.588 52.5828 143.123C46.2947 140.6 47.6213 132.843 51.5514 121.983C51.9478 120.888 52.3014 119.925 52.5416 119.145C53.0411 117.615 54.4758 116.587 56.0838 116.606H67.6269C68.3631 116.606 69.0822 116.826 69.6932 117.236L77.1912 122.246C81.4507 125.089 86.6902 126.062 91.686 124.937C96.6818 123.811 100.998 120.684 103.626 116.289C106.375 111.641 105.132 105.664 100.758 102.499L95.6333 98.8129C95.9061 98.4388 96.203 98.0647 96.4347 97.6888C99.2184 93.0448 97.9449 87.0416 93.5189 83.9267L74.1175 70.1527C72.2108 68.8038 69.9334 68.0761 67.5977 68.0709H59.1198C58.3406 62.2651 58.5294 56.3683 59.6758 50.6225L75.65 35.4326C81.425 29.6302 82.767 20.7507 78.964 13.4998C82.9387 12.2487 87.2394 13.9958 89.2182 17.6615C91.0768 20.4589 90.0351 23.2408 87.018 29.3813V29.3813Z" fill="#0D0D0D"/>
</svg>
