<svg width="211" height="211" viewBox="0 0 211 211" fill="none" xmlns="http://www.w3.org/2000/svg">
<path d="M202.908 1.06077C202.281 0.434633 201.442 0.0679351 200.557 0.0339622C199.672 -1.08327e-05 198.806 0.301243 198.134 0.87752L174.192 21.3992L147.687 27.2891V15.158C147.687 13.0564 147.117 10.9942 146.037 9.19129C144.957 7.38839 143.408 5.91241 141.555 4.92075C139.702 3.92909 137.615 3.45893 135.515 3.5604C133.416 3.66187 131.384 4.33117 129.635 5.49693L121.128 11.1686C120.646 11.4896 120.252 11.9246 119.978 12.4349C119.705 12.9452 119.562 13.515 119.562 14.0937V29.2205C119.561 30.8555 119.846 32.4781 120.405 34.0147L100.604 42.5009L73.1317 53.9475C68.9321 55.689 64.4226 56.5595 59.8766 56.5062C55.3305 56.453 50.8426 55.477 46.6849 53.6376C40.877 51.0688 34.5477 49.8974 28.205 50.2178C21.8624 50.5381 15.6833 52.3412 10.1638 55.4822L1.80255 60.2599C1.33321 60.5282 0.932041 60.901 0.630229 61.3495C0.328417 61.798 0.134089 62.3101 0.0623481 62.8459C-0.00939245 63.3817 0.0433869 63.9268 0.216583 64.4389C0.38978 64.951 0.678729 65.4163 1.06097 65.7986L19.6264 84.3638C21.1352 85.8631 22.2791 87.6894 22.9694 89.7015C23.6597 91.7135 23.878 93.8573 23.6074 95.9672C23.2383 98.9207 23.5015 101.919 24.3796 104.763C25.2576 107.607 26.7304 110.232 28.7003 112.463C30.6701 114.695 33.092 116.481 35.8052 117.705C38.5183 118.929 41.4608 119.562 44.4372 119.562C51.9169 119.579 59.1613 122.178 64.9457 126.92C70.73 131.662 74.6992 138.256 76.1821 145.587L77.4432 151.893C77.5681 152.517 77.8599 153.095 78.2876 153.566C78.7153 154.037 79.2628 154.383 79.8718 154.568C80.4808 154.752 81.1285 154.768 81.7457 154.613C82.3629 154.458 82.9265 154.139 83.3765 153.689L105.5 131.566V133.212L88.0173 206.639C87.8944 207.155 87.89 207.693 88.0045 208.212C88.1191 208.73 88.3495 209.216 88.6786 209.632C89.0077 210.049 89.4269 210.386 89.9047 210.617C90.3825 210.849 90.9066 210.969 91.4375 210.969H101.984C102.691 210.969 103.382 210.756 103.966 210.357C104.55 209.958 105.001 209.393 105.258 208.734L133.21 137.303L154.871 208.477C155.09 209.198 155.536 209.829 156.141 210.278C156.747 210.727 157.481 210.969 158.234 210.969H168.781C169.289 210.969 169.79 210.859 170.251 210.647C170.713 210.434 171.122 210.125 171.452 209.739C171.782 209.353 172.025 208.901 172.163 208.413C172.302 207.924 172.333 207.412 172.255 206.91L154.809 95.2542L168.14 55.259L187.932 45.3631C188.479 45.0896 188.945 44.6779 189.284 44.1688L210.378 12.5282C210.829 11.8519 211.032 11.0404 210.952 10.2316C210.871 9.42279 210.514 8.66673 209.939 8.09202L202.908 1.06077ZM122.499 50.8825L120.257 52.0034L113.064 44.8108L120.215 41.7462L122.499 50.8825ZM126.594 29.2205V22.1893H140.656V29.2205C140.656 31.0853 139.915 32.8738 138.597 34.1924C137.278 35.511 135.49 36.2518 133.625 36.2518C131.76 36.2518 129.972 35.511 128.653 34.1924C127.335 32.8738 126.594 31.0853 126.594 29.2205ZM158.234 32.1482V40.0459L155.771 41.2776L150.254 33.9217L158.234 32.1482ZM133.535 11.3472C134.225 10.8874 135.027 10.6234 135.855 10.5834C136.683 10.5435 137.506 10.7289 138.237 11.1201C138.968 11.5112 139.579 12.0934 140.005 12.8045C140.431 13.5157 140.656 14.3291 140.656 15.158H127.819L133.535 11.3472ZM83.0495 144.072C81.218 135.178 76.3789 127.187 69.3465 121.442C62.3141 115.698 53.5176 112.551 44.4372 112.531C42.4577 112.531 40.5009 112.11 38.6965 111.296C36.8921 110.482 35.2814 109.294 33.9714 107.81C32.6613 106.326 31.6818 104.58 31.0979 102.689C30.5139 100.797 30.3389 98.8035 30.5844 96.8392C30.9911 93.6668 30.6628 90.4433 29.6248 87.4179C28.5869 84.3926 26.867 81.6465 24.5983 79.392L9.28742 64.0811L13.6523 61.5873C18.2131 58.9919 23.3188 57.502 28.5596 57.2373C33.8004 56.9725 39.0303 57.9403 43.8293 60.0629C48.8612 62.2887 54.2926 63.4697 59.7943 63.5341C65.2961 63.5986 70.7536 62.5453 75.8363 60.438L92.6185 53.4454L77.9655 75.4249C77.5804 76.0024 77.375 76.6809 77.375 77.375V94.9531C77.375 95.691 77.6072 96.4102 78.0386 97.0088C78.47 97.6074 79.0789 98.0551 79.7789 98.2885L108.084 107.724L105.68 114.935C105.561 115.293 105.5 115.669 105.5 116.047V121.622L83.0495 144.072ZM103.62 83.3973L107.58 78.117L110.22 87.3571L103.62 83.3973ZM111.82 96.5169L110.308 101.053L103.928 98.9265L106.676 93.4307L111.82 96.5169ZM160.839 203.937L136.988 125.57C136.776 124.871 136.351 124.256 135.772 123.81C135.194 123.364 134.491 123.109 133.761 123.081C133.031 123.052 132.311 123.252 131.7 123.652C131.089 124.052 130.617 124.633 130.351 125.313L99.5847 203.937H95.8884L112.436 134.439C112.499 134.172 112.531 133.899 112.531 133.625V116.617L118.581 98.4687H148.194L164.674 203.937H160.839ZM183.952 39.4919L163.693 49.6212C163.28 49.8276 162.912 50.1133 162.61 50.462C162.307 50.8108 162.076 51.2157 161.93 51.6537L148.669 91.4375H118.699L112.396 69.3781C112.216 68.7487 111.864 68.182 111.38 67.7418C110.896 67.3016 110.298 67.0054 109.654 66.8865C109.01 66.7676 108.346 66.8308 107.737 67.069C107.127 67.3071 106.596 67.7108 106.203 68.2344L95.6563 82.2969C95.361 82.6907 95.1516 83.1421 95.0418 83.6219C94.932 84.1017 94.9241 84.5992 95.0188 85.0822C95.1134 85.5652 95.3084 86.023 95.5911 86.4259C95.8738 86.8288 96.238 87.1678 96.6601 87.421L100.629 89.8024L97.19 96.6805L84.4062 92.4194V78.4393L104.33 48.5539L106.103 47.7939L117.077 58.7673C117.598 59.289 118.271 59.6333 118.999 59.7515C119.728 59.8696 120.475 59.7556 121.135 59.4256L128.166 55.91C128.881 55.5523 129.453 54.9613 129.788 54.2346C130.122 53.5078 130.198 52.6889 130.004 51.9129L127.495 41.8742C130.353 43.2611 133.596 43.6378 136.696 42.943C139.795 42.2482 142.568 40.5228 144.56 38.0487L151.906 47.8436C152.4 48.5026 153.109 48.9672 153.911 49.1564C154.712 49.3456 155.555 49.2473 156.291 48.8788L163.322 45.3631C163.906 45.0712 164.397 44.6224 164.741 44.067C165.084 43.5116 165.266 42.8716 165.266 42.2187V30.5858L176.575 28.0725C177.138 27.9473 177.662 27.6854 178.101 27.3099L186.987 19.6931L193.085 25.7918L183.952 39.4919ZM197.063 19.8254L192.341 15.1036L200.238 8.33493L202.929 11.0261L197.063 19.8254Z" fill="#0D0D0D"/>
<path d="M13.6793 37.9041L5.31812 42.6819L8.80672 48.787L17.1679 44.0093L13.6793 37.9041Z" fill="#0D0D0D"/>
<path d="M47.3449 42.4849C52.3767 44.7107 57.8081 45.8916 63.3098 45.9561C68.8116 46.0206 74.2692 44.9673 79.3518 42.86L82.2428 41.6553L79.5382 35.1648L76.6473 36.3695C72.4476 38.1109 67.9381 38.9814 63.3921 38.9282C58.846 38.8749 54.3581 37.899 50.2005 36.0596C41.8892 32.3804 32.5847 31.5927 23.7732 33.8224L25.5078 40.6365C32.7888 38.7941 40.4772 39.4448 47.3449 42.4849V42.4849Z" fill="#0D0D0D"/>
</svg>
