<svg width="225" height="225" viewBox="0 0 225 225" fill="none" xmlns="http://www.w3.org/2000/svg">
<path d="M213.849 84.0366H209.379V67.4231C209.379 57.6017 201.389 49.6116 191.567 49.6116H127.016C121.032 49.6116 115.731 52.581 112.5 57.1201C109.269 52.5805 103.968 49.6116 97.9844 49.6116H57.4308C55.6106 49.6116 54.1349 51.0873 54.1349 52.9075C54.1349 54.7277 55.6106 56.2034 57.4308 56.2034H97.9844C104.171 56.2034 109.204 61.2365 109.204 67.4231V100.386C109.135 100.32 109.062 100.258 108.992 100.193C105.086 96.55 99.7906 94.4503 94.446 94.4503H39.5459C39.2555 90.025 36.2386 86.1328 32.0757 84.6571C30.9028 84.2414 29.6626 84.0366 28.4186 84.0366H22.213V67.4231C22.213 61.2365 27.2461 56.2034 33.4327 56.2034H44.2472C46.0674 56.2034 47.5431 54.7277 47.5431 52.9075C47.5431 51.0873 46.0674 49.6116 44.2472 49.6116H33.4327C23.6114 49.6116 15.6212 57.6017 15.6212 67.4231V84.0366H11.1511C5.0023 84.0366 0 89.0398 0 95.1877V129.602C0 142.407 10.4177 152.824 23.2225 152.824H24.8788C24.8788 152.824 21.27 162.531 21.2673 162.538C18.9905 168.662 23.6769 175.388 30.1992 175.388H35.5017C38.4697 175.388 41.3108 173.975 43.1016 171.608L57.3095 152.824H167.691L181.899 171.608C183.69 173.975 186.531 175.388 189.499 175.388C189.499 175.388 194.798 175.388 194.801 175.388C201.331 175.388 206.009 168.66 203.733 162.538L200.121 152.824H201.778C214.582 152.824 225 142.407 225 129.602V95.1877C225 89.0398 219.998 84.0366 213.849 84.0366ZM115.796 67.4239C115.796 61.2369 120.829 56.2038 127.016 56.2038H191.567C197.754 56.2038 202.787 61.2369 202.787 67.4235V84.037C202.787 84.037 196.583 84.037 196.581 84.037C192.199 84.037 187.995 86.8495 186.295 90.8846C185.819 92.0144 185.534 93.2282 185.454 94.4512C185.454 94.4512 130.556 94.4512 130.554 94.4512C125.127 94.4512 119.718 96.6348 115.796 100.387V67.4239ZM39.5701 101.043H94.446C102.584 101.043 109.204 107.663 109.204 115.801V120.488H39.5701V101.043ZM37.8444 167.631C37.2924 168.361 36.4162 168.797 35.5012 168.797C35.5012 168.797 30.2172 168.797 30.1988 168.797C28.1808 168.797 26.7425 166.726 27.4456 164.836L31.9113 152.824H49.0438L37.8444 167.631ZM194.801 168.796H189.499C188.584 168.796 187.708 168.361 187.156 167.631L175.956 152.824H193.089C193.089 152.824 197.539 164.794 197.554 164.835C198.259 166.73 196.81 168.796 194.801 168.796ZM201.778 146.232H23.2225C14.0524 146.233 6.5918 138.772 6.5918 129.602V95.1877C6.5918 92.6736 8.63701 90.6284 11.1511 90.6284H28.4186C30.9327 90.6284 32.9779 92.6736 32.9779 95.1877V123.783C32.9779 125.604 34.4536 127.079 36.2738 127.079H157.333C159.153 127.079 160.629 125.604 160.629 123.783C160.629 121.963 159.153 120.487 157.333 120.487H115.796V115.801C115.796 107.663 122.416 101.043 130.554 101.043H185.43V120.488H170.517C168.696 120.488 167.221 121.964 167.221 123.784C167.221 125.604 168.696 127.08 170.517 127.08H188.726C190.546 127.08 192.022 125.604 192.022 123.784V95.1882C192.022 92.674 194.067 90.6288 196.581 90.6288H213.848C216.363 90.6288 218.408 92.674 218.408 95.1882V129.602H218.408C218.408 138.772 210.948 146.232 201.778 146.232Z" fill="#0D0D0D"/>
</svg>
