<svg width="10" height="10" viewBox="0 0 10 10" fill="none" xmlns="http://www.w3.org/2000/svg">
<g clip-path="url(#clip0)">
<path d="M9.76361 5.68849C9.66137 5.66293 9.55914 5.68849 9.46968 5.75238C9.13741 6.03354 8.75402 6.26357 8.33229 6.41692C7.93613 6.57028 7.50162 6.64696 7.04156 6.64696C6.00641 6.64696 5.06072 6.22523 4.3834 5.54791C3.70608 4.87059 3.28436 3.9249 3.28436 2.88976C3.28436 2.45525 3.36103 2.03352 3.48883 1.65014C3.6294 1.24119 3.83388 0.870581 4.10225 0.551092C4.21727 0.410516 4.19171 0.206043 4.05113 0.0910263C3.96167 0.0271283 3.85944 0.00156917 3.7572 0.0271284C2.67093 0.321059 1.72525 0.972818 1.04793 1.84183C0.396167 2.69806 0 3.75877 0 4.92171C0 6.31469 0.562302 7.57987 1.48243 8.5C2.40256 9.42013 3.66774 9.98243 5.06072 9.98243C6.23644 9.98243 7.32271 9.57348 8.19172 8.89616C9.07351 8.20607 9.71249 7.22204 9.98086 6.09743C10.0448 5.90574 9.94252 5.72683 9.76361 5.68849ZM7.80833 8.35942C7.06711 8.94728 6.12143 9.30511 5.08628 9.30511C3.87222 9.30511 2.77317 8.80671 1.98084 8.01437C1.1885 7.22204 0.690098 6.12299 0.690098 4.90893C0.690098 3.89934 1.02237 2.97921 1.59745 2.238C1.99362 1.72681 2.49202 1.30509 3.0671 1.01116C3.0032 1.15173 2.93931 1.29231 2.88819 1.44566C2.72205 1.90573 2.64538 2.39135 2.64538 2.90254C2.64538 4.1166 3.14378 5.22842 3.93611 6.02076C4.72845 6.81309 5.84027 7.31149 7.05434 7.31149C7.59108 7.31149 8.10226 7.22204 8.57511 7.04312C8.74124 6.97923 8.90738 6.91533 9.06073 6.83865C8.75402 7.42651 8.33229 7.95047 7.80833 8.35942Z" fill="#0D0D0D"/>
</g>
<defs>
<clipPath id="clip0">
<rect width="10" height="10" fill="white"/>
</clipPath>
</defs>
</svg>
