<svg width="29" height="29" viewBox="0 0 29 29" fill="none" xmlns="http://www.w3.org/2000/svg">
<circle cx="14.2206" cy="14.1351" r="14.0612" fill="#333333"/>
<g clip-path="url(#clip0)">
<path d="M19.775 14.7189C19.6549 14.6888 19.5347 14.7189 19.4295 14.794C19.0389 15.1245 18.5882 15.3949 18.0925 15.5752C17.6268 15.7554 17.116 15.8456 16.5752 15.8456C15.3583 15.8456 14.2466 15.3498 13.4504 14.5536C12.6542 13.7574 12.1585 12.6457 12.1585 11.4289C12.1585 10.9181 12.2486 10.4223 12.3988 9.97166C12.5641 9.49093 12.8045 9.05527 13.1199 8.6797C13.2551 8.51444 13.2251 8.27408 13.0598 8.13887C12.9547 8.06376 12.8345 8.03371 12.7143 8.06376C11.4374 8.40928 10.3257 9.17545 9.52948 10.197C8.76331 11.2035 8.29761 12.4504 8.29761 13.8175C8.29761 15.455 8.95861 16.9422 10.0403 18.0239C11.1219 19.1055 12.6092 19.7665 14.2466 19.7665C15.6287 19.7665 16.9057 19.2858 17.9272 18.4896C18.9638 17.6784 19.7149 16.5216 20.0304 15.1996C20.1055 14.9743 19.9854 14.7639 19.775 14.7189ZM17.4765 17.8586C16.6052 18.5497 15.4935 18.9703 14.2767 18.9703C12.8495 18.9703 11.5576 18.3844 10.6261 17.453C9.69473 16.5216 9.10884 15.2296 9.10884 13.8025C9.10884 12.6157 9.49943 11.534 10.1755 10.6627C10.6412 10.0618 11.2271 9.56604 11.9031 9.22052C11.828 9.38577 11.7529 9.55102 11.6928 9.73129C11.4975 10.2721 11.4073 10.843 11.4073 11.4439C11.4073 12.8711 11.9932 14.178 12.9246 15.1095C13.8561 16.0409 15.163 16.6268 16.5902 16.6268C17.2212 16.6268 17.8221 16.5216 18.3779 16.3113C18.5732 16.2362 18.7685 16.1611 18.9488 16.0709C18.5882 16.762 18.0925 17.3779 17.4765 17.8586Z" fill="#F2F2F2"/>
</g>
<defs>
<clipPath id="clip0">
<rect width="11.7553" height="11.7553" fill="white" transform="translate(8.29761 8.03198)"/>
</clipPath>
</defs>
</svg>
