<svg width="25" height="25" viewBox="0 0 25 25" fill="none" xmlns="http://www.w3.org/2000/svg">
<path d="M23.6191 0H21.1998C20.5345 0 19.9901 0.544355 19.9901 1.20968V23.7903C19.9901 24.4558 20.5345 25 21.1998 25H23.6191C24.2845 25 24.8288 24.4558 24.8288 23.7903V1.20968C24.8288 0.544355 24.2845 0 23.6191 0Z" fill="black"/>
<path d="M1.42157 15.4637H6.4619C7.14738 15.4637 7.7119 16.0282 7.7119 16.7137V18.871C7.7119 19.9195 8.92157 20.5042 9.74819 19.8589L17.8127 13.5887C18.4579 13.0847 18.4579 12.0968 17.8127 11.5927L9.74819 5.14112C8.92157 4.49596 7.7119 5.08064 7.7119 6.14918V8.30644C7.7119 8.99193 7.14738 9.55644 6.4619 9.55644H1.42157C0.736091 9.55644 0.171575 10.121 0.171575 10.8064V14.1935C0.151413 14.8992 0.71593 15.4637 1.42157 15.4637Z" fill="black"/>
</svg>
