<svg width="15" height="15" viewBox="0 0 15 15" fill="none" xmlns="http://www.w3.org/2000/svg">
<g clip-path="url(#clip0)">
<path d="M9.85972 4.69901C9.20498 4.04427 8.28063 3.62061 7.27925 3.62061C6.27787 3.62061 5.35352 4.02501 4.69877 4.69901C4.04402 5.35376 3.62036 6.27811 3.62036 7.27949C3.62036 8.28087 4.04402 9.20522 4.69877 9.85997C5.35352 10.5147 6.27787 10.9384 7.27925 10.9384C8.28063 10.9384 9.20498 10.534 9.85972 9.85997C10.5145 9.20522 10.9381 8.28087 10.9381 7.27949C10.9381 6.27811 10.5337 5.35376 9.85972 4.69901ZM9.16646 9.16671C8.68503 9.64814 8.01102 9.937 7.27925 9.937C6.54747 9.937 5.87346 9.64814 5.39203 9.16671C4.9106 8.68527 4.62174 8.01127 4.62174 7.27949C4.62174 6.54771 4.9106 5.87371 5.39203 5.39228C5.87346 4.91084 6.54747 4.62198 7.27925 4.62198C8.01102 4.62198 8.68503 4.91084 9.16646 5.39228C9.64789 5.87371 9.93675 6.54771 9.93675 7.27949C9.93675 8.01127 9.64789 8.68527 9.16646 9.16671Z" fill="#FFF9F2"/>
<path d="M14.058 6.77856H12.5752C12.3056 6.77856 12.0745 7.00965 12.0745 7.27925C12.0745 7.54886 12.3056 7.77994 12.5752 7.77994H14.058C14.3276 7.77994 14.5587 7.54886 14.5587 7.27925C14.5587 7.00965 14.3276 6.77856 14.058 6.77856Z" fill="#FFF9F2"/>
<path d="M7.27925 12.0742C7.00965 12.0742 6.77856 12.3053 6.77856 12.5749V14.0577C6.77856 14.3273 7.00965 14.5584 7.27925 14.5584C7.54886 14.5584 7.77994 14.3273 7.77994 14.0577V12.5749C7.77994 12.3053 7.54886 12.0742 7.27925 12.0742Z" fill="#FFF9F2"/>
<path d="M12.4213 11.7275L11.3621 10.6684C11.1888 10.4758 10.8614 10.4758 10.6688 10.6684C10.4763 10.8609 10.4763 11.169 10.6688 11.3616L11.728 12.4208C11.9206 12.6133 12.2287 12.6133 12.4213 12.4208C12.6138 12.2282 12.6138 11.9201 12.4213 11.7275Z" fill="#FFF9F2"/>
<path d="M7.27925 0C7.00965 0 6.77856 0.231087 6.77856 0.500689V1.9835C6.77856 2.2531 7.00965 2.48419 7.27925 2.48419C7.54886 2.48419 7.77994 2.2531 7.77994 1.9835V0.500689C7.77994 0.231087 7.54886 0 7.27925 0Z" fill="#FFF9F2"/>
<path d="M12.4403 2.13759C12.2477 1.94502 11.9396 1.94502 11.747 2.13759L10.6879 3.19674C10.4953 3.38932 10.4953 3.69743 10.6879 3.89001C10.8612 4.08258 11.1886 4.08258 11.3811 3.89001L12.4403 2.83086C12.6329 2.63828 12.6329 2.33017 12.4403 2.13759Z" fill="#FFF9F2"/>
<path d="M1.9835 6.77856H0.500689C0.231087 6.77856 0 7.00965 0 7.27925C0 7.54886 0.21183 7.77994 0.500689 7.77994H1.9835C2.2531 7.77994 2.48419 7.54886 2.48419 7.27925C2.48419 7.00965 2.2531 6.77856 1.9835 6.77856Z" fill="#FFF9F2"/>
<path d="M3.87072 10.6684C3.6974 10.4758 3.37003 10.4758 3.17746 10.6684L2.11831 11.7275C1.92573 11.9201 1.92573 12.2282 2.11831 12.4208C2.31088 12.6133 2.619 12.6133 2.81157 12.4208L3.87072 11.3616C4.06329 11.169 4.06329 10.8609 3.87072 10.6684Z" fill="#FFF9F2"/>
<path d="M3.87072 3.19674L2.81157 2.13759C2.619 1.94502 2.31088 1.94502 2.11831 2.13759C1.92573 2.33017 1.92573 2.63828 2.11831 2.83086L3.17746 3.89001C3.37003 4.08258 3.67815 4.08258 3.87072 3.89001C4.06329 3.69743 4.06329 3.38932 3.87072 3.19674Z" fill="#FFF9F2"/>
</g>
<defs>
<clipPath id="clip0">
<rect width="14.5585" height="14.5585" fill="white"/>
</clipPath>
</defs>
</svg>
