<svg width="29" height="29" viewBox="0 0 29 29" fill="none" xmlns="http://www.w3.org/2000/svg">
<circle cx="14.2208" cy="14.8644" r="14.016" fill="#F2F2F2" stroke="#F2F2F2" stroke-width="0.0904255"/>
<g clip-path="url(#clip0)">
<path d="M16.8014 12.284C16.1466 11.6292 15.2223 11.2056 14.2209 11.2056C13.2195 11.2056 12.2952 11.61 11.6404 12.284C10.9857 12.9387 10.562 13.8631 10.562 14.8645C10.562 15.8658 10.9857 16.7902 11.6404 17.4449C12.2952 18.0997 13.2195 18.5233 14.2209 18.5233C15.2223 18.5233 16.1466 18.1189 16.8014 17.4449C17.4561 16.7902 17.8798 15.8658 17.8798 14.8645C17.8798 13.8631 17.4754 12.9387 16.8014 12.284ZM16.1081 16.7517C15.6267 17.2331 14.9527 17.522 14.2209 17.522C13.4891 17.522 12.8151 17.2331 12.3337 16.7517C11.8523 16.2702 11.5634 15.5962 11.5634 14.8645C11.5634 14.1327 11.8523 13.4587 12.3337 12.9772C12.8151 12.4958 13.4891 12.2069 14.2209 12.2069C14.9527 12.2069 15.6267 12.4958 16.1081 12.9772C16.5895 13.4587 16.8784 14.1327 16.8784 14.8645C16.8784 15.5962 16.5895 16.2702 16.1081 16.7517Z" fill="#333333"/>
<path d="M20.9996 14.3635H19.5168C19.2472 14.3635 19.0161 14.5946 19.0161 14.8642C19.0161 15.1338 19.2472 15.3649 19.5168 15.3649H20.9996C21.2692 15.3649 21.5003 15.1338 21.5003 14.8642C21.5003 14.5946 21.2692 14.3635 20.9996 14.3635Z" fill="#333333"/>
<path d="M14.2209 19.6592C13.9513 19.6592 13.7202 19.8903 13.7202 20.1599V21.6427C13.7202 21.9123 13.9513 22.1434 14.2209 22.1434C14.4905 22.1434 14.7216 21.9123 14.7216 21.6427V20.1599C14.7216 19.8903 14.4905 19.6592 14.2209 19.6592Z" fill="#333333"/>
<path d="M19.3629 19.3125L18.3038 18.2533C18.1304 18.0607 17.8031 18.0607 17.6105 18.2533C17.4179 18.4459 17.4179 18.754 17.6105 18.9466L18.6696 20.0057C18.8622 20.1983 19.1703 20.1983 19.3629 20.0057C19.5555 19.8132 19.5555 19.505 19.3629 19.3125Z" fill="#333333"/>
<path d="M14.2209 7.58496C13.9513 7.58496 13.7202 7.81605 13.7202 8.08565V9.56846C13.7202 9.83806 13.9513 10.0692 14.2209 10.0692C14.4905 10.0692 14.7216 9.83806 14.7216 9.56846V8.08565C14.7216 7.81605 14.4905 7.58496 14.2209 7.58496Z" fill="#333333"/>
<path d="M19.3819 9.72255C19.1894 9.52998 18.8813 9.52998 18.6887 9.72255L17.6295 10.7817C17.437 10.9743 17.437 11.2824 17.6295 11.475C17.8029 11.6675 18.1302 11.6675 18.3228 11.475L19.3819 10.4158C19.5745 10.2232 19.5745 9.91513 19.3819 9.72255Z" fill="#333333"/>
<path d="M8.92515 14.3635H7.44234C7.17274 14.3635 6.94165 14.5946 6.94165 14.8642C6.94165 15.1338 7.15348 15.3649 7.44234 15.3649H8.92515C9.19475 15.3649 9.42584 15.1338 9.42584 14.8642C9.42584 14.5946 9.19475 14.3635 8.92515 14.3635Z" fill="#333333"/>
<path d="M10.8124 18.2533C10.6391 18.0607 10.3117 18.0607 10.1191 18.2533L9.05996 19.3125C8.86738 19.505 8.86738 19.8132 9.05996 20.0057C9.25253 20.1983 9.56065 20.1983 9.75322 20.0057L10.8124 18.9466C11.0049 18.754 11.0049 18.4459 10.8124 18.2533Z" fill="#333333"/>
<path d="M10.8124 10.7817L9.75322 9.72255C9.56065 9.52998 9.25253 9.52998 9.05996 9.72255C8.86738 9.91513 8.86738 10.2232 9.05996 10.4158L10.1191 11.475C10.3117 11.6675 10.6198 11.6675 10.8124 11.475C11.0049 11.2824 11.0049 10.9743 10.8124 10.7817Z" fill="#333333"/>
</g>
<rect x="6.98686" y="7.63017" width="14.4681" height="14.4681" stroke="#F2F2F2" stroke-width="0.0904255"/>
<defs>
<clipPath id="clip0">
</clipPath>
</defs>
</svg>
