<svg width="225" height="225" viewBox="0 0 225 225" fill="none" xmlns="http://www.w3.org/2000/svg">
<g clip-path="url(#clip0)">
<path d="M204.958 38.8523C174.001 30.37 142.862 17.1622 114.907 0.657286C113.422 -0.219421 111.58 -0.219421 110.095 0.657286C81.3339 17.6364 51.8774 30.1296 20.0413 38.8523C17.9847 39.4152 16.5591 41.2847 16.5591 43.4173V91.7773C16.5591 141.577 39.5332 174.542 58.8067 193.425C79.5559 213.757 103.726 225 112.501 225C121.276 225 145.446 213.757 166.195 193.425C185.468 174.542 208.441 141.578 208.441 91.7773V43.4169C208.441 41.2847 207.015 39.4152 204.958 38.8523ZM198.975 91.7768C198.975 138.29 177.547 169.049 159.57 186.663C139.165 206.656 117.35 215.533 112.501 215.533C107.653 215.533 85.8357 206.656 65.431 186.663C47.4543 169.049 26.0253 138.29 26.0253 91.7768V47.0098C56.4697 38.3658 84.8223 26.3024 112.502 10.2171C139.491 25.8757 169.258 38.539 198.975 47.0081V91.7768Z" fill="#0D0D0D"/>
<path d="M70.549 46.4805C69.5909 44.0481 66.8431 42.8532 64.4102 43.8117C55.9552 47.1432 47.2769 50.2097 38.6166 52.9264C36.643 53.546 35.3 55.3741 35.3 57.4422V75.7194C35.3 78.3333 37.4195 80.4523 40.0329 80.4523C42.6464 80.4523 44.7658 78.3333 44.7658 75.7194V60.9011C52.5349 58.3874 60.2957 55.607 67.8802 52.6183C70.3125 51.6607 71.5074 48.9128 70.549 46.4805Z" fill="#0D0D0D"/>
<path d="M79.5396 47.3784C80.1746 47.3784 80.8193 47.2505 81.4376 46.9807L81.5246 46.9429C83.9192 45.8935 84.9976 43.106 83.9482 40.7123C82.8979 38.3177 80.0946 37.2345 77.7027 38.283L77.6262 38.316C75.2303 39.3623 74.1484 42.1476 75.1948 44.5426C75.9713 46.3206 77.7137 47.3784 79.5396 47.3784Z" fill="#0D0D0D"/>
<path d="M168.891 152.614C166.704 151.185 163.771 151.8 162.34 153.988C158.44 159.957 153.864 165.674 148.739 170.977C144.523 175.337 139.956 179.401 135.163 183.055C133.084 184.64 132.684 187.609 134.269 189.688C135.201 190.91 136.61 191.552 138.036 191.552C139.037 191.552 140.045 191.236 140.902 190.582C146.072 186.64 150.999 182.257 155.543 177.556C161.085 171.824 166.038 165.636 170.265 159.165C171.695 156.977 171.079 154.044 168.891 152.614Z" fill="#0D0D0D"/>
<path d="M124.171 190.478L123.899 190.638C121.637 191.948 120.864 194.843 122.174 197.105C123.052 198.621 124.64 199.467 126.275 199.467C127.079 199.467 127.895 199.262 128.641 198.829L128.954 198.645C131.21 197.324 131.968 194.425 130.647 192.169C129.325 189.914 126.425 189.158 124.171 190.478Z" fill="#0D0D0D"/>
<path d="M80.2392 102.84C77.3331 99.9337 73.4681 98.3341 69.3575 98.3341C65.2468 98.3341 61.3814 99.9342 58.474 102.84C52.4742 108.841 52.4742 118.606 58.474 124.607L86.4214 152.553C89.3279 155.459 93.1929 157.059 97.304 157.059C101.415 157.059 105.28 155.459 108.187 152.552L166.529 94.2099C172.529 88.2074 172.529 78.4441 166.528 72.4451C163.622 69.5386 159.757 67.939 155.645 67.939C151.534 67.939 147.669 69.539 144.762 72.4451L97.3036 119.904L80.2392 102.84ZM151.456 79.1389C152.574 78.0204 154.063 77.4048 155.646 77.4048C157.229 77.4048 158.717 78.0204 159.836 79.1389C162.145 81.4482 162.145 85.2072 159.835 87.5174L101.494 145.859C100.375 146.978 98.8869 147.593 97.304 147.593C95.7211 147.593 94.2327 146.978 93.1138 145.859L65.1673 117.913C62.8571 115.603 62.8571 111.844 65.1664 109.535C66.2853 108.416 67.7737 107.8 69.357 107.8C70.9404 107.8 72.4279 108.416 73.5463 109.534L93.9567 129.945C94.8448 130.832 96.0481 131.331 97.3036 131.331C98.5591 131.331 99.7623 130.832 100.65 129.945L151.456 79.1389Z" fill="#0D0D0D"/>
</g>
<defs>
<clipPath id="clip0">
<rect width="225" height="225" fill="white"/>
</clipPath>
</defs>
</svg>
