<svg width="35" height="35" viewBox="0 0 35 35" fill="none" xmlns="http://www.w3.org/2000/svg">
<path d="M33.9052 15.3115C33.3015 15.3115 32.8115 15.8015 32.8115 16.4052V28.7901L24.0621 32.2899V20.7799C24.0621 20.1762 23.5721 19.6863 22.9684 19.6863C22.3647 19.6863 21.8747 20.1762 21.8747 20.7799V32.2877L13.1253 28.7879V11.4596L18.1934 13.4873C18.7468 13.7104 19.3899 13.4392 19.6152 12.877C19.8405 12.317 19.5671 11.6805 19.0049 11.4552L12.4581 8.83476C12.4581 8.83476 12.4581 8.83476 12.4559 8.83476L12.4384 8.8282C12.1781 8.7232 11.8872 8.7232 11.6269 8.8282L11.6072 8.83476C11.6072 8.83476 11.6072 8.83476 11.6051 8.83476L0.687931 13.2029C0.274519 13.3692 0.00109863 13.7694 0.00109863 14.2179V33.9041C0.00109863 34.2672 0.18265 34.6063 0.482319 34.8097C0.666057 34.9344 0.878231 34.9978 1.09478 34.9978C1.23258 34.9978 1.37039 34.9716 1.50163 34.9191L12.0316 30.7084L22.5419 34.9125C22.5419 34.9125 22.5419 34.9125 22.5441 34.9125L22.5638 34.9213C22.824 35.0262 23.115 35.0262 23.3753 34.9213L23.3949 34.9125C23.3949 34.9125 23.3949 34.9125 23.3971 34.9125L34.3143 30.5465C34.7255 30.3781 34.9989 29.9778 34.9989 29.5294V16.4052C34.9989 15.8015 34.5089 15.3115 33.9052 15.3115ZM10.9379 28.7879L2.18846 32.2877V14.9572L10.9379 11.4574V28.7879Z" fill="#F2F2F2"/>
<path d="M27.3432 4.37476C25.5342 4.37476 24.0621 5.84685 24.0621 7.6558C24.0621 9.46475 25.5342 10.9368 27.3432 10.9368C29.1521 10.9368 30.6242 9.46475 30.6242 7.6558C30.6242 5.84685 29.1521 4.37476 27.3432 4.37476ZM27.3432 8.74948C26.7395 8.74948 26.2495 8.25951 26.2495 7.6558C26.2495 7.05209 26.7395 6.56212 27.3432 6.56212C27.9469 6.56212 28.4369 7.05209 28.4369 7.6558C28.4369 8.25951 27.9469 8.74948 27.3432 8.74948Z" fill="#F2F2F2"/>
<path d="M27.3431 0C23.1215 0 19.6874 3.43416 19.6874 7.65577C19.6874 11.5843 25.8295 18.5423 26.5294 19.3232C26.7372 19.5528 27.0325 19.6863 27.3431 19.6863C27.6538 19.6863 27.949 19.5528 28.1568 19.3232C28.8568 18.5423 34.9989 11.5843 34.9989 7.65577C34.9989 3.43416 31.5648 0 27.3431 0ZM27.3431 16.9236C24.9545 14.091 21.8747 9.74252 21.8747 7.65577C21.8747 4.64159 24.329 2.18736 27.3431 2.18736C30.3573 2.18736 32.8116 4.64159 32.8116 7.65577C32.8116 9.74033 29.7317 14.091 27.3431 16.9236Z" fill="#F2F2F2"/>
</svg>
