<svg width="25" height="25" viewBox="0 0 25 25" fill="none" xmlns="http://www.w3.org/2000/svg">
<path d="M3.61915 0H1.19979C0.534467 0 -0.0098877 0.544355 -0.0098877 1.20968V23.7903C-0.0098877 24.4558 0.534467 25 1.19979 25H3.61915C4.28447 25 4.82882 24.4558 4.82882 23.7903V1.20968C4.82882 0.544355 4.28447 0 3.61915 0Z" fill="black"/>
<path d="M7.42157 15.4637H12.4619C13.1474 15.4637 13.7119 16.0282 13.7119 16.7137V18.871C13.7119 19.9195 14.9216 20.5042 15.7482 19.8589L23.8127 13.5887C24.4579 13.0847 24.4579 12.0968 23.8127 11.5927L15.7482 5.14112C14.9216 4.49596 13.7119 5.08064 13.7119 6.14918V8.30644C13.7119 8.99193 13.1474 9.55644 12.4619 9.55644H7.42157C6.73609 9.55644 6.17157 10.121 6.17157 10.8064V14.1935C6.15141 14.8992 6.71593 15.4637 7.42157 15.4637Z" fill="black"/>
</svg>
