<svg width="35" height="35" viewBox="0 0 35 35" fill="none" xmlns="http://www.w3.org/2000/svg">
<path d="M17.5 8.75C19.9162 8.75 21.875 6.79125 21.875 4.375C21.875 1.95875 19.9162 0 17.5 0C15.0838 0 13.125 1.95875 13.125 4.375C13.125 6.79125 15.0838 8.75 17.5 8.75Z" fill="#F2F2F2"/>
<path d="M24.0538 20.6412L23.0606 12.9063C22.9491 11.7841 22.0128 10.9375 20.8863 10.9375H14.116C12.9872 10.9375 12.051 11.7841 11.9416 12.8778L10.9463 20.6434C10.9069 20.9541 11.0031 21.2691 11.211 21.5031C11.4188 21.7394 11.7163 21.875 12.0313 21.875H13.2563L14.1247 28.6562C14.2363 29.7763 15.1747 30.625 16.3035 30.625H18.6988C19.8275 30.625 20.7638 29.7762 20.8731 28.6847L21.7438 21.875H22.9688C23.2838 21.875 23.5813 21.7394 23.7891 21.5031C23.9991 21.2691 24.0953 20.9541 24.0538 20.6412Z" fill="#F2F2F2"/>
<path d="M23.6075 24.5503L23.3363 26.6591C27.9431 27.3328 30.625 28.6847 30.625 29.5312C30.625 30.6884 25.6419 32.8125 17.5 32.8125C9.35813 32.8125 4.375 30.6884 4.375 29.5312C4.375 28.6847 7.05688 27.3306 11.6659 26.6591L11.3947 24.5503C6.24094 25.2634 2.1875 26.9194 2.1875 29.5312C2.1875 33.1231 9.88969 35 17.5 35C25.1103 35 32.8125 33.1231 32.8125 29.5312C32.8125 26.9194 28.7591 25.2634 23.6075 24.5503Z" fill="#F2F2F2"/>
</svg>
